{
  "accessors": [
    {
      "bufferView": 2,
      "componentType": 5126,
      "count": 5778,
      "max": [
        0.4208507239818573,
        0.18394024670124054,
        1.644313097000122
      ],
      "min": [
        -0.43275395035743713,
        -0.10792429745197296,
        0.8255955576896667
      ],
      "type": "VEC3"
    },
    {
      "bufferView": 2,
      "byteOffset": 69336,
      "componentType": 5126,
      "count": 5778,
      "max": [
        0.9994493126869202,
        0.9999585747718811,
        0.9999907612800598
      ],
      "min": [
        -0.9998778700828552,
        -0.9999016523361206,
        -0.9998953938484192
      ],
      "type": "VEC3"
    },
    {
      "bufferView": 3,
      "componentType": 5126,
      "count": 5778,
      "max": [
        0.9997807741165161,
        0.9998401403427124,
        0.9998784065246582,
        1.0
      ],
      "min": [
        -0.9993966221809387,
        -0.9998785853385925,
        -0.9996852874755859,
        -1.0
      ],
      "type": "VEC4"
    },
    {
      "bufferView": 1,
      "componentType": 5126,
      "count": 5778,
      "max": [
        0.9992821216583252,
        0.9996479749679565
      ],
      "min": [
        0.0039844512939453125,
        0.00035202503204345703
      ],
      "type": "VEC2"
    },
    {
      "bufferView": 1,
      "byteOffset": 46224,
      "componentType": 5126,
      "count": 5778,
      "max": [
        0.9992821216583252,
        0.9996479749679565
      ],
      "min": [
        0.0039844512939453125,
        0.00035202503204345703
      ],
      "type": "VEC2"
    },
    {
      "bufferView": 1,
      "byteOffset": 92448,
      "componentType": 5126,
      "count": 5778,
      "max": [
        0.9992821216583252,
        0.9996479749679565
      ],
      "min": [
        0.0039844512939453125,
        0.00035202503204345703
      ],
      "type": "VEC2"
    },
    {
      "bufferView": 0,
      "componentType": 5125,
      "count": 29100,
      "type": "SCALAR"
    },
    {
      "bufferView": 2,
      "byteOffset": 138672,
      "componentType": 5126,
      "count": 5854,
      "max": [
        0.3349820673465729,
        0.247343972325325,
        1.7457871437072754
      ],
      "min": [
        -0.35066741704940796,
        -0.07432562857866287,
        0.10256123542785645
      ],
      "type": "VEC3"
    },
    {
      "bufferView": 2,
      "byteOffset": 208920,
      "componentType": 5126,
      "count": 5854,
      "max": [
        0.9995309114456177,
        0.9996421337127686,
        0.9913635849952698
      ],
      "min": [
        -0.9995309114456177,
        -0.9980654120445251,
        -0.9987218976020813
      ],
      "type": "VEC3"
    },
    {
      "bufferView": 3,
      "byteOffset": 92448,
      "componentType": 5126,
      "count": 5854,
      "max": [
        0.9999708533287048,
        0.9999407529830933,
        0.998115599155426,
        1.0
      ],
      "min": [
        -0.9999708533287048,
        -0.9998971819877625,
        -0.9998846650123596,
        -1.0
      ],
      "type": "VEC4"
    },
    {
      "bufferView": 1,
      "byteOffset": 138672,
      "componentType": 5126,
      "count": 5854,
      "max": [
        0.9997262954711914,
        0.9703973531723022
      ],
      "min": [
        0.0002734661102294922,
        0.00027373433113098145
      ],
      "type": "VEC2"
    },
    {
      "bufferView": 1,
      "byteOffset": 185504,
      "componentType": 5126,
      "count": 5854,
      "max": [
        0.9997262954711914,
        0.9703973531723022
      ],
      "min": [
        0.0002734661102294922,
        0.00027373433113098145
      ],
      "type": "VEC2"
    },
    {
      "bufferView": 1,
      "byteOffset": 232336,
      "componentType": 5126,
      "count": 5854,
      "max": [
        0.9997262954711914,
        0.9703973531723022
      ],
      "min": [
        0.0002734661102294922,
        0.00027373433113098145
      ],
      "type": "VEC2"
    },
    {
      "bufferView": 0,
      "byteOffset": 116400,
      "componentType": 5125,
      "count": 25320,
      "type": "SCALAR"
    },
    {
      "bufferView": 2,
      "byteOffset": 279168,
      "componentType": 5126,
      "count": 1454,
      "max": [
        0.24543792009353638,
        0.2078087478876114,
        1.1080268621444702
      ],
      "min": [
        -0.2532614469528198,
        -0.14185869693756104,
        -0.030871331691741943
      ],
      "type": "VEC3"
    },
    {
      "bufferView": 2,
      "byteOffset": 296616,
      "componentType": 5126,
      "count": 1454,
      "max": [
        0.9994738101959229,
        0.9984480738639832,
        0.9860683679580688
      ],
      "min": [
        -0.9996190071105957,
        -0.9962697625160217,
        -0.9999354481697083
      ],
      "type": "VEC3"
    },
    {
      "bufferView": 3,
      "byteOffset": 186112,
      "componentType": 5126,
      "count": 1454,
      "max": [
        0.9997674226760864,
        0.9729353189468384,
        0.999986469745636,
        1.0
      ],
      "min": [
        -0.9999603033065796,
        -0.972126305103302,
        -0.1660011261701584,
        -1.0
      ],
      "type": "VEC4"
    },
    {
      "bufferView": 1,
      "byteOffset": 279168,
      "componentType": 5126,
      "count": 1454,
      "max": [
        0.9998390674591064,
        0.8215434551239014
      ],
      "min": [
        0.0001609325408935547,
        0.00016091042198240757
      ],
      "type": "VEC2"
    },
    {
      "bufferView": 1,
      "byteOffset": 290800,
      "componentType": 5126,
      "count": 1454,
      "max": [
        0.9998390674591064,
        0.8215434551239014
      ],
      "min": [
        0.0001609325408935547,
        0.00016091042198240757
      ],
      "type": "VEC2"
    },
    {
      "bufferView": 1,
      "byteOffset": 302432,
      "componentType": 5126,
      "count": 1454,
      "max": [
        0.9998390674591064,
        0.8215434551239014
      ],
      "min": [
        0.0001609325408935547,
        0.00016091042198240757
      ],
      "type": "VEC2"
    },
    {
      "bufferView": 0,
      "byteOffset": 217680,
      "componentType": 5125,
      "count": 7536,
      "type": "SCALAR"
    },
    {
      "bufferView": 2,
      "byteOffset": 314064,
      "componentType": 5126,
      "count": 3545,
      "max": [
        0.30126553773880005,
        0.30001217126846313,
        1.7575479745864868
      ],
      "min": [
        -0.3012655973434448,
        -0.13237512111663818,
        0.6601530313491821
      ],
      "type": "VEC3"
    },
    {
      "bufferView": 2,
      "byteOffset": 356604,
      "componentType": 5126,
      "count": 3545,
      "max": [
        0.999457597732544,
        0.9999759793281555,
        0.9999997019767761
      ],
      "min": [
        -0.9999752640724182,
        -0.9999858736991882,
        -0.9963111877441406
      ],
      "type": "VEC3"
    },
    {
      "bufferView": 3,
      "byteOffset": 209376,
      "componentType": 5126,
      "count": 3545,
      "max": [
        0.9982209205627441,
        0.9995068311691284,
        0.9999168515205383,
        1.0
      ],
      "min": [
        -1.0,
        -0.9998603463172913,
        -0.9999997615814209,
        -1.0
      ],
      "type": "VEC4"
    },
    {
      "bufferView": 1,
      "byteOffset": 314064,
      "componentType": 5126,
      "count": 3545,
      "max": [
        0.9960883855819702,
        0.9996132254600525
      ],
      "min": [
        0.00038674473762512207,
        0.00038674590177834034
      ],
      "type": "VEC2"
    },
    {
      "bufferView": 1,
      "byteOffset": 342424,
      "componentType": 5126,
      "count": 3545,
      "max": [
        0.9960883855819702,
        0.9996132254600525
      ],
      "min": [
        0.00038674473762512207,
        0.00038674590177834034
      ],
      "type": "VEC2"
    },
    {
      "bufferView": 1,
      "byteOffset": 370784,
      "componentType": 5126,
      "count": 3545,
      "max": [
        0.9960883855819702,
        0.9996132254600525
      ],
      "min": [
        0.00038674473762512207,
        0.00038674590177834034
      ],
      "type": "VEC2"
    },
    {
      "bufferView": 0,
      "byteOffset": 247824,
      "componentType": 5125,
      "count": 18204,
      "type": "SCALAR"
    },
    {
      "bufferView": 2,
      "byteOffset": 399144,
      "componentType": 5126,
      "count": 3044,
      "max": [
        0.05543982982635498,
        -0.007584976032376289,
        1.8426380157470703
      ],
      "min": [
        -0.05188295617699623,
        -0.05799166113138199,
        1.7383136749267578
      ],
      "type": "VEC3"
    },
    {
      "bufferView": 2,
      "byteOffset": 435672,
      "componentType": 5126,
      "count": 3044,
      "max": [
        0.9994436502456665,
        0.9996122717857361,
        0.9999997615814209
      ],
      "min": [
        -0.9999421238899231,
        -0.9998185038566589,
        -0.9999903440475464
      ],
      "type": "VEC3"
    },
    {
      "bufferView": 3,
      "byteOffset": 266096,
      "componentType": 5126,
      "count": 3044,
      "max": [
        0.999656081199646,
        0.8826610445976257,
        0.9999419450759888,
        1.0
      ],
      "min": [
        -0.9998285174369812,
        -0.9952558279037476,
        -0.9996432065963745,
        -1.0
      ],
      "type": "VEC4"
    },
    {
      "bufferView": 1,
      "byteOffset": 399144,
      "componentType": 5126,
      "count": 3044,
      "max": [
        0.9945796132087708,
        0.9999497532844543
      ],
      "min": [
        5.02467155456543e-05,
        5.02467155456543e-05
      ],
      "type": "VEC2"
    },
    {
      "bufferView": 1,
      "byteOffset": 423496,
      "componentType": 5126,
      "count": 3044,
      "max": [
        0.9945796132087708,
        0.9999497532844543
      ],
      "min": [
        5.02467155456543e-05,
        5.02467155456543e-05
      ],
      "type": "VEC2"
    },
    {
      "bufferView": 1,
      "byteOffset": 447848,
      "componentType": 5126,
      "count": 3044,
      "max": [
        0.9945796132087708,
        0.9999497532844543
      ],
      "min": [
        5.02467155456543e-05,
        5.02467155456543e-05
      ],
      "type": "VEC2"
    },
    {
      "bufferView": 0,
      "byteOffset": 320640,
      "componentType": 5125,
      "count": 15996,
      "type": "SCALAR"
    },
    {
      "bufferView": 2,
      "byteOffset": 472200,
      "componentType": 5126,
      "count": 3787,
      "max": [
        0.08548358082771301,
        0.1712709218263626,
        1.9529030323028564
      ],
      "min": [
        -0.09809605777263641,
        -0.08440913259983063,
        1.6014392375946045
      ],
      "type": "VEC3"
    },
    {
      "bufferView": 2,
      "byteOffset": 517644,
      "componentType": 5126,
      "count": 3787,
      "max": [
        0.9999122023582458,
        0.9977020621299744,
        0.9998898506164551
      ],
      "min": [
        -0.9999662041664124,
        -0.9998916387557983,
        -0.9982966184616089
      ],
      "type": "VEC3"
    },
    {
      "bufferView": 3,
      "byteOffset": 314800,
      "componentType": 5126,
      "count": 3787,
      "max": [
        0.999993622303009,
        0.9999039769172668,
        0.9997068047523499,
        1.0
      ],
      "min": [
        -0.9999281167984009,
        -0.9992352724075317,
        -0.9998969435691833,
        1.0
      ],
      "type": "VEC4"
    },
    {
      "bufferView": 1,
      "byteOffset": 472200,
      "componentType": 5126,
      "count": 3787,
      "max": [
        0.9919441342353821,
        0.9795063734054565
      ],
      "min": [
        0.02150595188140869,
        0.003466205671429634
      ],
      "type": "VEC2"
    },
    {
      "bufferView": 1,
      "byteOffset": 502496,
      "componentType": 5126,
      "count": 3787,
      "max": [
        0.9919441342353821,
        0.9795063734054565
      ],
      "min": [
        0.02150595188140869,
        0.003466205671429634
      ],
      "type": "VEC2"
    },
    {
      "bufferView": 1,
      "byteOffset": 532792,
      "componentType": 5126,
      "count": 3787,
      "max": [
        0.9919441342353821,
        0.9795063734054565
      ],
      "min": [
        0.02150595188140869,
        0.003466205671429634
      ],
      "type": "VEC2"
    },
    {
      "bufferView": 0,
      "byteOffset": 384624,
      "componentType": 5125,
      "count": 21000,
      "type": "SCALAR"
    }
  ],
  "asset": {
    "extras": {
      "author": "Andromeda (https://sketchfab.com/div.andromeda)",
      "license": "CC-BY-4.0 (http://creativecommons.org/licenses/by/4.0/)",
      "source": "https://sketchfab.com/3d-models/gothic-ii-paladin-b4c88e66eec743a2bd2aa620f161bc0f",
      "title": "Gothic II Paladin"
    },
    "generator": "Sketchfab-12.78.0",
    "version": "2.0"
  },
  "bufferViews": [
    {
      "buffer": 0,
      "byteLength": 468624,
      "name": "floatBufferViews",
      "target": 34963
    },
    {
      "buffer": 0,
      "byteLength": 563088,
      "byteOffset": 468624,
      "byteStride": 8,
      "name": "floatBufferViews",
      "target": 34962
    },
    {
      "buffer": 0,
      "byteLength": 563088,
      "byteOffset": 1031712,
      "byteStride": 12,
      "name": "floatBufferViews",
      "target": 34962
    },
    {
      "buffer": 0,
      "byteLength": 375392,
      "byteOffset": 1594800,
      "byteStride": 16,
      "name": "floatBufferViews",
      "target": 34962
    }
  ],
  "buffers": [
    {
      "byteLength": 1970192,
      "uri": "scene.bin"
    }
  ],
  "images": [
    {
      "uri": "textures/Arms_mat_baseColor.png"
    },
    {
      "uri": "textures/Arms_mat_metallicRoughness.png"
    },
    {
      "uri": "textures/Arms_mat_normal.png"
    },
    {
      "uri": "textures/Acessories_mat_baseColor.png"
    },
    {
      "uri": "textures/Acessories_mat_metallicRoughness.png"
    },
    {
      "uri": "textures/Acessories_mat_normal.png"
    },
    {
      "uri": "textures/Legs_mat_baseColor.png"
    },
    {
      "uri": "textures/Legs_mat_metallicRoughness.png"
    },
    {
      "uri": "textures/Legs_mat_normal.png"
    },
    {
      "uri": "textures/Main_mat_baseColor.png"
    },
    {
      "uri": "textures/Main_mat_metallicRoughness.png"
    },
    {
      "uri": "textures/Main_mat_normal.png"
    },
    {
      "uri": "textures/Eye_mat_baseColor.png"
    },
    {
      "uri": "textures/Eye_mat_metallicRoughness.png"
    },
    {
      "uri": "textures/Eye_mat_normal.png"
    },
    {
      "uri": "textures/Face_mat_baseColor.png"
    },
    {
      "uri": "textures/Face_mat_metallicRoughness.png"
    },
    {
      "uri": "textures/Face_mat_normal.png"
    }
  ],
  "materials": [
    {
      "doubleSided": true,
      "name": "Arms_mat",
      "normalTexture": {
        "index": 2
      },
      "pbrMetallicRoughness": {
        "baseColorTexture": {
          "index": 0
        },
        "metallicRoughnessTexture": {
          "index": 1
        }
      }
    },
    {
      "doubleSided": true,
      "name": "Acessories_mat",
      "normalTexture": {
        "index": 5
      },
      "pbrMetallicRoughness": {
        "baseColorTexture": {
          "index": 3
        },
        "metallicRoughnessTexture": {
          "index": 4
        }
      }
    },
    {
      "doubleSided": true,
      "name": "Legs_mat",
      "normalTexture": {
        "index": 8
      },
      "pbrMetallicRoughness": {
        "baseColorTexture": {
          "index": 6
        },
        "metallicRoughnessTexture": {
          "index": 7
        }
      }
    },
    {
      "doubleSided": true,
      "name": "Main_mat",
      "normalTexture": {
        "index": 11
      },
      "pbrMetallicRoughness": {
        "baseColorTexture": {
          "index": 9
        },
        "metallicRoughnessTexture": {
          "index": 10
        }
      }
    },
    {
      "doubleSided": true,
      "name": "Eye_mat",
      "normalTexture": {
        "index": 14
      },
      "pbrMetallicRoughness": {
        "baseColorTexture": {
          "index": 12
        },
        "metallicFactor": 0.0,
        "metallicRoughnessTexture": {
          "index": 13
        }
      }
    },
    {
      "doubleSided": true,
      "name": "Face_mat",
      "normalTexture": {
        "index": 17
      },
      "pbrMetallicRoughness": {
        "baseColorTexture": {
          "index": 15
        },
        "metallicRoughnessTexture": {
          "index": 16
        }
      }
    }
  ],
  "meshes": [
    {
      "name": "Paladin_Arms_mat_0",
      "primitives": [
        {
          "attributes": {
            "NORMAL": 1,
            "POSITION": 0,
            "TANGENT": 2,
            "TEXCOORD_0": 3,
            "TEXCOORD_1": 4,
            "TEXCOORD_2": 5
          },
          "indices": 6,
          "material": 0,
          "mode": 4
        }
      ]
    },
    {
      "name": "Paladin_Acessories_mat_0",
      "primitives": [
        {
          "attributes": {
            "NORMAL": 8,
            "POSITION": 7,
            "TANGENT": 9,
            "TEXCOORD_0": 10,
            "TEXCOORD_1": 11,
            "TEXCOORD_2": 12
          },
          "indices": 13,
          "material": 1,
          "mode": 4
        }
      ]
    },
    {
      "name": "Paladin_Legs_mat_0",
      "primitives": [
        {
          "attributes": {
            "NORMAL": 15,
            "POSITION": 14,
            "TANGENT": 16,
            "TEXCOORD_0": 17,
            "TEXCOORD_1": 18,
            "TEXCOORD_2": 19
          },
          "indices": 20,
          "material": 2,
          "mode": 4
        }
      ]
    },
    {
      "name": "Paladin_Main_mat_0",
      "primitives": [
        {
          "attributes": {
            "NORMAL": 22,
            "POSITION": 21,
            "TANGENT": 23,
            "TEXCOORD_0": 24,
            "TEXCOORD_1": 25,
            "TEXCOORD_2": 26
          },
          "indices": 27,
          "material": 3,
          "mode": 4
        }
      ]
    },
    {
      "name": "Paladin_Eye_mat_0",
      "primitives": [
        {
          "attributes": {
            "NORMAL": 29,
            "POSITION": 28,
            "TANGENT": 30,
            "TEXCOORD_0": 31,
            "TEXCOORD_1": 32,
            "TEXCOORD_2": 33
          },
          "indices": 34,
          "material": 4,
          "mode": 4
        }
      ]
    },
    {
      "name": "Paladin_Face_mat_0",
      "primitives": [
        {
          "attributes": {
            "NORMAL": 36,
            "POSITION": 35,
            "TANGENT": 37,
            "TEXCOORD_0": 38,
            "TEXCOORD_1": 39,
            "TEXCOORD_2": 40
          },
          "indices": 41,
          "material": 5,
          "mode": 4
        }
      ]
    }
  ],
  "nodes": [
    {
      "children": [
        1
      ],
      "matrix": [
        1.0,
        0.0,
        0.0,
        0.0,
        0.0,
        2.220446049250313e-16,
        -1.0,
        0.0,
        0.0,
        1.0,
        2.220446049250313e-16,
        0.0,
        0.0,
        0.0,
        0.0,
        1.0
      ],
      "name": "Sketchfab_model"
    },
    {
      "children": [
        2
      ],
      "matrix": [
        0.009999999776482582,
        0.0,
        0.0,
        0.0,
        0.0,
        0.0,
        0.009999999776482582,
        0.0,
        0.0,
        -0.009999999776482582,
        0.0,
        0.0,
        0.0,
        0.0,
        0.0,
        1.0
      ],
      "name": "2abe46300d6b4403a8f1bcb6395d82e4.fbx"
    },
    {
      "children": [
        3
      ],
      "name": "RootNode"
    },
    {
      "children": [
        4,
        5,
        6,
        7,
        8,
        9
      ],
      "matrix": [
        100.0,
        0.0,
        0.0,
        0.0,
        0.0,
        -1.629206793918314e-05,
        -99.99999999999868,
        0.0,
        0.0,
        99.99999999999868,
        -1.629206793918314e-05,
        0.0,
        0.0,
        0.0,
        0.0,
        1.0
      ],
      "name": "Paladin"
    },
    {
      "mesh": 0,
      "name": "Paladin_Arms_mat_0"
    },
    {
      "mesh": 1,
      "name": "Paladin_Acessories_mat_0"
    },
    {
      "mesh": 2,
      "name": "Paladin_Legs_mat_0"
    },
    {
      "mesh": 3,
      "name": "Paladin_Main_mat_0"
    },
    {
      "mesh": 4,
      "name": "Paladin_Eye_mat_0"
    },
    {
      "mesh": 5,
      "name": "Paladin_Face_mat_0"
    }
  ],
  "samplers": [
    {
      "magFilter": 9729,
      "minFilter": 9987,
      "wrapS": 10497,
      "wrapT": 10497
    }
  ],
  "scene": 0,
  "scenes": [
    {
      "name": "Sketchfab_Scene",
      "nodes": [
        0
      ]
    }
  ],
  "textures": [
    {
      "sampler": 0,
      "source": 0
    },
    {
      "sampler": 0,
      "source": 1
    },
    {
      "sampler": 0,
      "source": 2
    },
    {
      "sampler": 0,
      "source": 3
    },
    {
      "sampler": 0,
      "source": 4
    },
    {
      "sampler": 0,
      "source": 5
    },
    {
      "sampler": 0,
      "source": 6
    },
    {
      "sampler": 0,
      "source": 7
    },
    {
      "sampler": 0,
      "source": 8
    },
    {
      "sampler": 0,
      "source": 9
    },
    {
      "sampler": 0,
      "source": 10
    },
    {
      "sampler": 0,
      "source": 11
    },
    {
      "sampler": 0,
      "source": 12
    },
    {
      "sampler": 0,
      "source": 13
    },
    {
      "sampler": 0,
      "source": 14
    },
    {
      "sampler": 0,
      "source": 15
    },
    {
      "sampler": 0,
      "source": 16
    },
    {
      "sampler": 0,
      "source": 17
    }
  ]
}
